<?xml version="1.0" encoding="UTF-8" standalone="no"?>
<!-- Created with Inkscape (http://www.inkscape.org/) -->

<svg
   xmlns:dc="http://purl.org/dc/elements/1.1/"
   xmlns:cc="http://creativecommons.org/ns#"
   xmlns:rdf="http://www.w3.org/1999/02/22-rdf-syntax-ns#"
   xmlns:svg="http://www.w3.org/2000/svg"
   xmlns="http://www.w3.org/2000/svg"
   xmlns:xlink="http://www.w3.org/1999/xlink"
   xmlns:sodipodi="http://sodipodi.sourceforge.net/DTD/sodipodi-0.dtd"
   xmlns:inkscape="http://www.inkscape.org/namespaces/inkscape"
   version="1.1"
   id="svg866"
   width="2560"
   height="1090"
   viewBox="0 0 2560 1090"
   sodipodi:docname="gridBackground.svg"
   inkscape:label="BaseLayer"
   inkscape:version="0.92.3 (2405546, 2018-03-11)">
  <metadata
     id="metadata872">
    <rdf:RDF>
      <cc:Work
         rdf:about="">
        <dc:format>image/svg+xml</dc:format>
        <dc:type
           rdf:resource="http://purl.org/dc/dcmitype/StillImage" />
        <dc:title></dc:title>
      </cc:Work>
    </rdf:RDF>
  </metadata>
  <defs
     id="defs870">
    <linearGradient
       inkscape:collect="always"
       id="linearGradient1000">
      <stop
         style="stop-color:#eef6f6;stop-opacity:1;"
         offset="0"
         id="stop996" />
      <stop
         style="stop-color:#eef6f6;stop-opacity:0;"
         offset="1"
         id="stop998" />
    </linearGradient>
    <linearGradient
       inkscape:collect="always"
       id="linearGradient950">
      <stop
         style="stop-color:#eef6f6;stop-opacity:1;"
         offset="0"
         id="stop946" />
      <stop
         style="stop-color:#eef6f6;stop-opacity:0;"
         offset="1"
         id="stop948" />
    </linearGradient>
    <linearGradient
       inkscape:collect="always"
       id="linearGradient939">
      <stop
         style="stop-color:#eef6f6;stop-opacity:1;"
         offset="0"
         id="stop935" />
      <stop
         style="stop-color:#eef6f6;stop-opacity:0;"
         offset="1"
         id="stop937" />
    </linearGradient>
    <linearGradient
       inkscape:collect="always"
       id="linearGradient926">
      <stop
         style="stop-color:#eef6f6;stop-opacity:1;"
         offset="0"
         id="stop922" />
      <stop
         style="stop-color:#eef6f6;stop-opacity:0;"
         offset="1"
         id="stop924" />
    </linearGradient>
    <linearGradient
       inkscape:collect="always"
       id="linearGradient915">
      <stop
         style="stop-color:#eef6f6;stop-opacity:1;"
         offset="0"
         id="stop911" />
      <stop
         style="stop-color:#eef6f6;stop-opacity:0;"
         offset="1"
         id="stop913" />
    </linearGradient>
    <linearGradient
       inkscape:collect="always"
       id="linearGradient904">
      <stop
         style="stop-color:#eef6f6;stop-opacity:1;"
         offset="0"
         id="stop900" />
      <stop
         style="stop-color:#eef6f6;stop-opacity:0;"
         offset="1"
         id="stop902" />
    </linearGradient>
    <linearGradient
       inkscape:collect="always"
       id="linearGradient893">
      <stop
         style="stop-color:#eef6f6;stop-opacity:1;"
         offset="0"
         id="stop889" />
      <stop
         style="stop-color:#eef6f6;stop-opacity:0;"
         offset="1"
         id="stop891" />
    </linearGradient>
    <linearGradient
       inkscape:collect="always"
       xlink:href="#linearGradient893"
       id="linearGradient895"
       x1="-0.5"
       y1="544.16256"
       x2="2560.5"
       y2="544.16256"
       gradientUnits="userSpaceOnUse" />
    <radialGradient
       inkscape:collect="always"
       xlink:href="#linearGradient904"
       id="radialGradient906"
       cx="1280"
       cy="544.16256"
       fx="1280"
       fy="544.16256"
       r="1280.5"
       gradientTransform="matrix(1,0,0,0.42600547,0,312.34634)"
       gradientUnits="userSpaceOnUse" />
    <linearGradient
       inkscape:collect="always"
       xlink:href="#linearGradient915"
       id="linearGradient917"
       x1="2560"
       y1="-0.8374384"
       x2="0"
       y2="1089.1626"
       gradientUnits="userSpaceOnUse" />
    <linearGradient
       inkscape:collect="always"
       xlink:href="#linearGradient926"
       id="linearGradient928"
       x1="589.05664"
       y1="1089.5813"
       x2="2308.2832"
       y2="5.0492363"
       gradientUnits="userSpaceOnUse" />
    <radialGradient
       inkscape:collect="always"
       xlink:href="#linearGradient939"
       id="radialGradient941"
       cx="1276.8473"
       cy="536.7619"
       fx="1276.8473"
       fy="536.7619"
       r="1280.5"
       gradientTransform="matrix(0.17644216,-0.41827479,0.99805326,0.42101193,515.84062,849.0997)"
       gradientUnits="userSpaceOnUse" />
    <linearGradient
       inkscape:collect="always"
       xlink:href="#linearGradient950"
       id="linearGradient952"
       x1="2560"
       y1="1089.1626"
       x2="2311.436"
       y2="5.049242"
       gradientUnits="userSpaceOnUse" />
    <filter
       style="color-interpolation-filters:sRGB;"
       id="filter11212"
       inkscape:label="Opacity"
       x="0"
       y="0"
       width="1"
       height="1"
       inkscape:menu-tooltip="Fades hue progressively to white"
       inkscape:menu="Color">
      <feTurbulence
         id="feTurbulence11214"
         baseFrequency="0.39000000000000029"
         seed="5"
         numOctaves="5"
         result="fbSourceGraphic"
         type="turbulence" />
      <feColorMatrix
         result="fbSourceGraphicAlpha"
         in="fbSourceGraphic"
         values="0 0 0 -1 0 0 0 0 -1 0 0 0 0 -1 0 0 0 0 1 0"
         id="feColorMatrix11242" />
      <feColorMatrix
         id="feColorMatrix11244"
         values="1 0 0 0 0 1 0 0 0 0 1 0 0 0 0 0 0 0 0 1 "
         type="matrix"
         result="r"
         in="fbSourceGraphic" />
      <feColorMatrix
         id="feColorMatrix11246"
         values="0 1 0 0 0 0 1 0 0 0 0 1 0 0 0 0 0 0 0 1 "
         type="matrix"
         result="g"
         in="fbSourceGraphic" />
      <feColorMatrix
         id="feColorMatrix11248"
         values="0 0 1 0 0 0 0 1 0 0 0 0 1 0 0 0 0 0 0 1 "
         type="matrix"
         result="b"
         in="fbSourceGraphic" />
      <feBlend
         in2="g"
         id="feBlend11250"
         result="minrg"
         in="r"
         mode="darken" />
      <feBlend
         in2="b"
         id="feBlend11252"
         result="p"
         in="minrg"
         mode="darken" />
      <feBlend
         in2="g"
         id="feBlend11254"
         result="maxrg"
         in="r"
         mode="lighten" />
      <feBlend
         in2="b"
         id="feBlend11256"
         result="q"
         in="maxrg"
         mode="lighten" />
      <feComponentTransfer
         id="feComponentTransfer11258"
         result="q2"
         in="q">
        <feFuncR
           id="feFuncR11260"
           slope="0"
           type="linear" />
      </feComponentTransfer>
      <feBlend
         in2="q2"
         id="feBlend11262"
         result="pq"
         in="p"
         mode="lighten" />
      <feColorMatrix
         id="feColorMatrix11264"
         values="-1 1 0 0 0 -1 1 0 0 0 -1 1 0 0 0 0 0 0 0 1 "
         type="matrix"
         result="qminp"
         in="pq" />
      <feComposite
         in2="qminp"
         id="feComposite11266"
         k3="1"
         operator="arithmetic"
         result="qminpc"
         in="qminp" />
      <feBlend
         in2="fbSourceGraphic"
         id="feBlend11268"
         result="result2"
         mode="screen" />
      <feComposite
         in2="fbSourceGraphic"
         id="feComposite11270"
         operator="in"
         in="result2"
         result="fbSourceGraphic" />
      <feColorMatrix
         result="fbSourceGraphicAlpha"
         in="fbSourceGraphic"
         values="0 0 0 -1 0 0 0 0 -1 0 0 0 0 -1 0 0 0 0 1 0"
         id="feColorMatrix11594" />
      <feColorMatrix
         id="feColorMatrix11596"
         values="1 0 0 0 0 0 1 0 0 0 0 0 1 0 0 0 0 0 1.8 -1.1 "
         result="colormatrix"
         in="fbSourceGraphic" />
      <feComposite
         in2="colormatrix"
         id="feComposite11598"
         operator="arithmetic"
         k2="0.3"
         result="fbSourceGraphic" />
      <feColorMatrix
         result="fbSourceGraphicAlpha"
         in="fbSourceGraphic"
         values="0 0 0 -1 0 0 0 0 -1 0 0 0 0 -1 0 0 0 0 1 0"
         id="feColorMatrix1022" />
      <feColorMatrix
         id="feColorMatrix1024"
         values="1 0 0 0 0 0 1 0 0 0 0 0 1 0 0 0 0 0 5 -1 "
         result="colormatrix"
         in="fbSourceGraphic" />
      <feComposite
         in2="colormatrix"
         id="feComposite1026"
         operator="arithmetic"
         k2="1"
         result="composite" />
      <feTurbulence
         id="feTurbulence1028" />
    </filter>
    <linearGradient
       inkscape:collect="always"
       xlink:href="#linearGradient1000"
       id="linearGradient1002"
       x1="2197.5"
       y1="102.5"
       x2="1301.4991"
       y2="98.661774"
       gradientUnits="userSpaceOnUse" />
  </defs>
  <sodipodi:namedview
     pagecolor="#ffffff"
     bordercolor="#666666"
     borderopacity="1"
     objecttolerance="10"
     gridtolerance="10"
     guidetolerance="10"
     inkscape:pageopacity="0"
     inkscape:pageshadow="2"
     inkscape:window-width="1299"
     inkscape:window-height="713"
     id="namedview868"
     showgrid="false"
     inkscape:zoom="0.63"
     inkscape:cx="904.94219"
     inkscape:cy="802.4249"
     inkscape:window-x="67"
     inkscape:window-y="27"
     inkscape:window-maximized="1"
     inkscape:current-layer="layer8" />
  <rect
     style="fill:#ff9800;fill-opacity:1;fill-rule:evenodd;stroke:#ff9800;stroke-opacity:0"
     id="rect876"
     width="2560"
     height="1090"
     x="0.5"
     y="-0.5" />
  <g
     inkscape:groupmode="layer"
     id="layer10"
     inkscape:label="white"
     style="display:none">
    <rect
       style="fill:#ffffff;fill-opacity:0.94736843;fill-rule:evenodd;stroke:#ff9800;stroke-opacity:0"
       id="rect885"
       width="2560"
       height="1090"
       x="0.49993896"
       y="-0.5" />
  </g>
  <g
     inkscape:groupmode="layer"
     id="layer1"
     inkscape:label="GradientBlueWhite1"
     style="display:inline">
    <rect
       style="fill:url(#linearGradient895);fill-opacity:1;fill-rule:evenodd;stroke:#ff9800;stroke-opacity:0"
       id="rect879"
       width="2560"
       height="1090"
       x="0"
       y="-0.8374384" />
  </g>
  <g
     inkscape:groupmode="layer"
     id="layer2"
     inkscape:label="GradientBlueWhite2"
     style="display:inline">
    <rect
       style="fill:url(#radialGradient906);fill-opacity:1;fill-rule:evenodd;stroke:#ff9800;stroke-opacity:0"
       id="rect898"
       width="2560"
       height="1090"
       x="0"
       y="-0.8374384" />
  </g>
  <g
     inkscape:groupmode="layer"
     id="layer3"
     inkscape:label="GradientBlueWhite3"
     style="display:inline">
    <rect
       style="fill:url(#linearGradient917);fill-opacity:1;fill-rule:evenodd;stroke:#ff9800;stroke-opacity:0"
       id="rect909"
       width="2560"
       height="1090"
       x="0"
       y="-0.8374384" />
  </g>
  <g
     inkscape:groupmode="layer"
     id="layer4"
     inkscape:label="GradientBlueWhite4"
     style="display:inline">
    <rect
       style="fill:url(#linearGradient928);fill-opacity:1;fill-rule:evenodd;stroke:#ff9800;stroke-opacity:0"
       id="rect920"
       width="2560"
       height="1090"
       x="0"
       y="-0.8374384" />
  </g>
  <g
     inkscape:groupmode="layer"
     id="layer5"
     inkscape:label="GradientBlueWhite5"
     style="display:inline">
    <rect
       style="fill:url(#radialGradient941);fill-opacity:1;fill-rule:evenodd;stroke:#ff9800;stroke-opacity:0"
       id="rect933"
       width="2560"
       height="1090"
       x="0"
       y="-0.8374384" />
  </g>
  <g
     inkscape:groupmode="layer"
     id="layer6"
     inkscape:label="GradientBlueWhite6"
     style="display:inline">
    <rect
       style="fill:url(#linearGradient952);fill-opacity:1;fill-rule:evenodd;stroke:#ff9800;stroke-opacity:0"
       id="rect944"
       width="2560"
       height="1090"
       x="0"
       y="-0.8374384" />
  </g>
  <g
     inkscape:groupmode="layer"
     id="layer9"
     inkscape:label="GradientBlueWhite7"
     style="display:inline">
    <rect
       style="opacity:0.95999995;fill:none;fill-opacity:0.05098039;fill-rule:evenodd;stroke:#d5e8f6;stroke-width:1.00157475;stroke-miterlimit:4;stroke-dasharray:none;stroke-opacity:1"
       id="rect11638"
       width="2560"
       height="1090"
       x="-0.50078738"
       y="-1.3382258" />
    <rect
       style="fill:url(#linearGradient1002);fill-opacity:1;fill-rule:evenodd;stroke:#ff9800;stroke-opacity:0"
       id="rect994"
       width="2560"
       height="1090"
       x="-0.50078738"
       y="-1.3382258" />
  </g>
  <g
     inkscape:groupmode="layer"
     id="layer7"
     inkscape:label="GridLayer"
     style="display:inline">
    <rect
       style="fill:none;fill-opacity:1;fill-rule:evenodd;stroke:#d5e8f6;stroke-width:1.00157475;stroke-miterlimit:4;stroke-dasharray:none;stroke-opacity:1"
       id="rect955"
       width="2560"
       height="1090"
       x="0"
       y="-0.8374384" />
    <rect
       style="opacity:0.95999995;fill:none;fill-opacity:0.05098039;fill-rule:evenodd;stroke:#d5e8f6;stroke-width:1.00157475;stroke-miterlimit:4;stroke-dasharray:none;stroke-opacity:1"
       id="rect11623"
       width="2560"
       height="1090"
       x="0"
       y="-0.8374384" />
    <rect
       style="opacity:0.95999995;fill:none;fill-opacity:0.05098039;fill-rule:evenodd;stroke:#dbe8f6;stroke-width:1.00157475;stroke-miterlimit:4;stroke-dasharray:none;stroke-opacity:1"
       id="rect11633"
       width="2560"
       height="1090"
       x="0"
       y="-0.8374384" />
    <path
       d="M -0.50078738,-1.3382258 V 1089.6633 M 23.499213,-1.3382258 V 1089.6633 m 24,-1091.0015258 V 1089.6633 m 24,-1091.0015258 V 1089.6633 m 24,-1091.0015258 V 1089.6633 M 119.49921,-1.3382258 V 1089.6633 m 24,-1091.0015258 V 1089.6633 m 24,-1091.0015258 V 1089.6633 m 24,-1091.0015258 V 1089.6633 m 24,-1091.0015258 V 1089.6633 m 24,-1091.0015258 V 1089.6633 m 24,-1091.0015258 V 1089.6633 m 24,-1091.0015258 V 1089.6633 m 24,-1091.0015258 V 1089.6633 m 24,-1091.0015258 V 1089.6633 m 24,-1091.0015258 V 1089.6633 m 24,-1091.0015258 V 1089.6633 m 24,-1091.0015258 V 1089.6633 m 24,-1091.0015258 V 1089.6633 m 24,-1091.0015258 V 1089.6633 m 24,-1091.0015258 V 1089.6633 m 24,-1091.0015258 V 1089.6633 m 24,-1091.0015258 V 1089.6633 m 24,-1091.0015258 V 1089.6633 m 24,-1091.0015258 V 1089.6633 m 24,-1091.0015258 V 1089.6633 m 24,-1091.0015258 V 1089.6633 m 24,-1091.0015258 V 1089.6633 m 24,-1091.0015258 V 1089.6633 m 24,-1091.0015258 V 1089.6633 m 24,-1091.0015258 V 1089.6633 m 24,-1091.0015258 V 1089.6633 m 24,-1091.0015258 V 1089.6633 m 24,-1091.0015258 V 1089.6633 m 24,-1091.0015258 V 1089.6633 m 24,-1091.0015258 V 1089.6633 m 24,-1091.0015258 V 1089.6633 m 24,-1091.0015258 V 1089.6633 m 24,-1091.0015258 V 1089.6633 m 24,-1091.0015258 V 1089.6633 m 24,-1091.0015258 V 1089.6633 m 24,-1091.0015258 V 1089.6633 M 1007.4992,-1.3382258 V 1089.6633 m 24,-1091.0015258 V 1089.6633 m 24,-1091.0015258 V 1089.6633 m 24,-1091.0015258 V 1089.6633 m 24,-1091.0015258 V 1089.6633 m 24,-1091.0015258 V 1089.6633 m 24,-1091.0015258 V 1089.6633 m 24,-1091.0015258 V 1089.6633 m 24,-1091.0015258 V 1089.6633 m 24,-1091.0015258 V 1089.6633 m 24,-1091.0015258 V 1089.6633 m 24,-1091.0015258 V 1089.6633 m 24,-1091.0015258 V 1089.6633 m 24,-1091.0015258 V 1089.6633 m 24,-1091.0015258 V 1089.6633 m 24,-1091.0015258 V 1089.6633 m 24,-1091.0015258 V 1089.6633 m 24,-1091.0015258 V 1089.6633 m 24,-1091.0015258 V 1089.6633 m 24,-1091.0015258 V 1089.6633 m 24,-1091.0015258 V 1089.6633 m 24,-1091.0015258 V 1089.6633 m 24,-1091.0015258 V 1089.6633 m 24,-1091.0015258 V 1089.6633 m 24,-1091.0015258 V 1089.6633 m 24,-1091.0015258 V 1089.6633 m 24,-1091.0015258 V 1089.6633 m 24,-1091.0015258 V 1089.6633 m 24,-1091.0015258 V 1089.6633 m 24,-1091.0015258 V 1089.6633 m 24,-1091.0015258 V 1089.6633 m 24,-1091.0015258 V 1089.6633 m 24,-1091.0015258 V 1089.6633 m 24,-1091.0015258 V 1089.6633 m 24,-1091.0015258 V 1089.6633 m 24,-1091.0015258 V 1089.6633 m 24,-1091.0015258 V 1089.6633 m 24,-1091.0015258 V 1089.6633 m 24,-1091.0015258 V 1089.6633 m 24,-1091.0015258 V 1089.6633 m 24,-1091.0015258 V 1089.6633 m 24,-1091.0015258 V 1089.6633 m 24,-1091.0015258 V 1089.6633 m 24,-1091.0015258 V 1089.6633 m 24,-1091.0015258 V 1089.6633 m 24,-1091.0015258 V 1089.6633 m 24,-1091.0015258 V 1089.6633 m 24,-1091.0015258 V 1089.6633 m 24,-1091.0015258 V 1089.6633 m 24,-1091.0015258 V 1089.6633 m 24,-1091.0015258 V 1089.6633 m 24,-1091.0015258 V 1089.6633 m 24,-1091.0015258 V 1089.6633 m 24,-1091.0015258 V 1089.6633 m 24,-1091.0015258 V 1089.6633 m 24,-1091.0015258 V 1089.6633 m 24,-1091.0015258 V 1089.6633 m 24,-1091.0015258 V 1089.6633 m 24,-1091.0015258 V 1089.6633 m 24,-1091.0015258 V 1089.6633 m 24,-1091.0015258 V 1089.6633 m 24,-1091.0015258 V 1089.6633 m 24,-1091.0015258 V 1089.6633 m 24,-1091.0015258 V 1089.6633 m 24,-1091.0015258 V 1089.6633 M -0.50078738,-1.3382258 H 2560.5008 M -0.50078738,22.661774 H 2560.5008 m -2561.00158738,24 H 2560.5008 m -2561.00158738,24 H 2560.5008 m -2561.00158738,24 H 2560.5008 M -0.50078738,118.66177 H 2560.5008 m -2561.00158738,24 H 2560.5008 m -2561.00158738,24 H 2560.5008 m -2561.00158738,24 H 2560.5008 m -2561.00158738,24 H 2560.5008 m -2561.00158738,24 H 2560.5008 m -2561.00158738,24 H 2560.5008 m -2561.00158738,24 H 2560.5008 m -2561.00158738,24 H 2560.5008 m -2561.00158738,24 H 2560.5008 m -2561.00158738,24 H 2560.5008 m -2561.00158738,24 H 2560.5008 m -2561.00158738,24 H 2560.5008 m -2561.00158738,24 H 2560.5008 m -2561.00158738,24 H 2560.5008 m -2561.00158738,24 H 2560.5008 m -2561.00158738,24 H 2560.5008 m -2561.00158738,24 H 2560.5008 m -2561.00158738,24 H 2560.5008 m -2561.00158738,24 H 2560.5008 m -2561.00158738,24 H 2560.5008 m -2561.00158738,24 H 2560.5008 m -2561.00158738,24 H 2560.5008 m -2561.00158738,24 H 2560.5008 m -2561.00158738,24 H 2560.5008 m -2561.00158738,24 H 2560.5008 m -2561.00158738,24 H 2560.5008 m -2561.00158738,24 H 2560.5008 m -2561.00158738,24 H 2560.5008 m -2561.00158738,24 H 2560.5008 m -2561.00158738,24 H 2560.5008 m -2561.00158738,24 H 2560.5008 m -2561.00158738,24 H 2560.5008 m -2561.00158738,24 H 2560.5008 m -2561.00158738,24 H 2560.5008 m -2561.00158738,24 H 2560.5008 m -2561.00158738,24 H 2560.5008 M -0.50078738,1006.6618 H 2560.5008 m -2561.00158738,24 H 2560.5008 m -2561.00158738,24 H 2560.5008 m -2561.00158738,24 H 2560.5008"
       style="fill:none;stroke:#81bbe4;stroke-width:1px;stroke-opacity:1"
       id="path11635"
       inkscape:connector-curvature="0" />
  </g>
  <g
     inkscape:groupmode="layer"
     id="layer8"
     inkscape:label="FilterLayer"
     style="display:inline">
    <rect
       style="fill:none;fill-opacity:1;fill-rule:evenodd;stroke:#d5e8f6;stroke-width:1.00157475;stroke-miterlimit:4;stroke-dasharray:none;stroke-opacity:1"
       id="rect11210"
       width="2560"
       height="1090"
       x="0"
       y="-0.8374384" />
    <rect
       style="opacity:0.11;fill:#eef6f6;fill-opacity:0.05098039;fill-rule:evenodd;stroke:#dbe8f6;stroke-width:1.00157475;stroke-miterlimit:4;stroke-dasharray:none;stroke-opacity:1;filter:url(#filter11212)"
       id="rect11240"
       width="2560"
       height="1090"
       x="0"
       y="0" />
    <rect
       style="fill:none;fill-opacity:0.04020099;fill-rule:evenodd;stroke:none;stroke-width:1.00157475;stroke-miterlimit:4;stroke-dasharray:none;stroke-opacity:1"
       id="rect11236"
       width="2560"
       height="1080"
       x="-0.5"
       y="8.6625614" />
  </g>
</svg>
